<svg width="32" height="32" viewBox="20 14 24 36" fill="none" xmlns="http://www.w3.org/2000/svg">
  <g id="SVGRepo_iconCarrier">
    <path fillRule="evenodd" clipRule="evenodd" d="M29.2356 22.3708L23.4653 34.8517L23.5155 35.1257C23.7915 37.0937 25.6229 38.7628 27.7554 39.6098C29.913 40.4817 32.2964 40.4817 33.5759 39.5351L33.7766 39.3856L39.572 26.4813L37.5147 17.2639L29.2356 22.3708Z" fill="#2A2941"/>
    <path fillRule="evenodd" clipRule="evenodd" d="M34.454 31.4636L31.7194 36.994L35.4324 41.2291C38.5183 37.293 37.6151 34.179 34.454 31.4636Z" fill="#A694FE"/>
    <path d="M29.9381 23.0435L31.4685 24.7873L26.0243 36.1471L26.6766 36.446L32.0957 25.1111L35.4324 26.6557L29.9883 38.0155L30.6406 38.3144L36.16 26.7553L38.5434 26.4066L32.9989 38.7379C30.8162 40.3572 24.8954 38.3144 24.4187 34.9513L29.9381 23.0435Z" fill="#FCAC15"/>
    <path d="M24.7448 39.4353C23.7915 40.4816 23.3148 41.3535 23.5155 42.4496C24.1176 41.4781 24.9706 41.0297 25.7985 41.2788C24.3183 43.9693 23.9922 45.738 24.8703 46.3359C25.372 44.7664 28.4579 43.9443 29.2356 41.4282C27.053 41.0297 25.8738 40.3072 24.7448 39.4353Z" fill="#4840FF"/>
  </g>
</svg>